<?xml version="1.0" standalone="no"?>
<!DOCTYPE svg PUBLIC "-//W3C//DTD SVG 20010904//EN"
 "http://www.w3.org/TR/2001/REC-SVG-20010904/DTD/svg10.dtd">
<svg version="1.0" xmlns="http://www.w3.org/2000/svg"
 width="512.000000pt" height="512.000000pt" viewBox="0 0 512.000000 512.000000"
 preserveAspectRatio="xMidYMid meet">

<g transform="translate(0.000000,512.000000) scale(0.100000,-0.100000)"
fill="#000000" stroke="none">
<path d="M2400 4509 c-265 -23 -562 -127 -775 -271 l-75 -51 -68 11 c-335 56
-703 -7 -1002 -170 -90 -49 -228 -142 -290 -196 l-45 -39 57 -64 c31 -35 76
-85 100 -111 l43 -47 105 80 c158 120 334 201 535 245 121 27 373 23 524 -9
l114 -23 89 67 c213 160 463 255 731 278 520 45 1018 -199 1302 -639 84 -129
137 -254 185 -432 31 -118 15 -107 183 -128 215 -27 436 -159 555 -333 118
-171 172 -395 142 -585 -46 -283 -235 -527 -489 -632 -132 -54 -182 -60 -505
-60 l-296 0 0 445 0 445 90 0 90 0 0 150 0 150 -1140 0 -1140 0 0 -150 0 -150
90 0 90 0 0 -446 0 -446 -247 5 c-286 5 -327 13 -498 97 -235 116 -419 327
-504 579 -85 248 -55 569 75 824 58 115 111 186 208 282 244 241 558 317 868
211 155 -53 294 -149 385 -267 25 -32 50 -59 54 -59 6 0 232 142 247 156 7 5
-69 99 -139 171 -221 226 -500 344 -819 345 -249 1 -454 -66 -666 -218 -388
-276 -616 -810 -553 -1295 64 -498 402 -910 877 -1069 136 -45 245 -60 490
-67 l222 -6 0 -244 0 -243 960 0 960 0 0 244 0 243 313 6 c332 6 385 12 537
64 305 104 567 359 679 663 199 538 -47 1145 -564 1389 -86 41 -205 82 -269
93 -13 2 -27 28 -50 93 -148 413 -468 765 -868 955 -190 90 -380 141 -593 159
-134 12 -168 12 -305 0z m820 -2914 l0 -695 -660 0 -660 0 0 695 0 695 660 0
660 0 0 -695z"/>
<path d="M2140 2035 l0 -125 420 0 420 0 0 125 0 125 -420 0 -420 0 0 -125z"/>
<path d="M2140 1620 l0 -120 420 0 420 0 0 120 0 120 -420 0 -420 0 0 -120z"/>
<path d="M2140 1200 l0 -120 420 0 420 0 0 120 0 120 -420 0 -420 0 0 -120z"/>
<path d="M1165 3179 c-73 -9 -157 -39 -217 -79 -52 -35 -141 -126 -136 -140 2
-6 57 -46 122 -89 l119 -80 28 30 c75 81 220 79 298 -4 l23 -26 124 82 c68 45
124 85 124 89 0 14 -105 115 -148 141 -97 62 -219 89 -337 76z"/>
</g>
</svg>
