<?xml version="1.0" standalone="no"?>
<!DOCTYPE svg PUBLIC "-//W3C//DTD SVG 20010904//EN"
 "http://www.w3.org/TR/2001/REC-SVG-20010904/DTD/svg10.dtd">
<svg version="1.0" xmlns="http://www.w3.org/2000/svg"
 width="1300.000000pt" height="1390.000000pt" viewBox="0 0 1300.000000 1390.000000"
 preserveAspectRatio="xMidYMid meet">

<g transform="translate(0.000000,1390.000000) scale(0.100000,-0.100000)"
fill="#000000" stroke="none">
<path d="M6385 10916 c-97 -24 -167 -73 -221 -154 -31 -46 -42 -80 -85 -275
-85 -387 -218 -992 -285 -1297 -35 -162 -73 -333 -84 -380 -11 -47 -47 -206
-79 -354 -33 -147 -61 -269 -63 -271 -2 -1 -43 -31 -93 -66 -177 -125 -379
-351 -509 -569 -95 -161 -180 -386 -217 -580 -7 -36 -14 -66 -15 -68 -1 -2
-23 10 -50 25 -75 44 -161 78 -260 104 -75 20 -113 23 -239 23 -127 -1 -166
-5 -255 -27 -247 -61 -441 -175 -623 -366 -371 -390 -493 -980 -313 -1510 142
-416 478 -755 861 -866 182 -53 50 -50 2625 -50 l2405 0 100 23 c149 33 217
57 360 128 137 67 230 131 330 227 41 40 54 57 40 55 -18 -3 -20 4 -25 71 -5
70 -6 72 -22 55 -10 -12 -18 -40 -20 -74 l-3 -55 -37 -3 c-29 -3 -38 0 -38 13
0 11 -22 0 -72 -38 -192 -141 -369 -218 -581 -252 -139 -23 -4769 -23 -4897 0
-461 81 -828 458 -942 969 -20 87 -23 129 -23 301 1 175 4 212 24 295 85 345
276 627 540 798 97 63 181 100 307 138 132 39 334 45 459 14 115 -28 244 -89
366 -173 l97 -66 7 92 c4 51 18 145 31 210 159 762 813 1334 1644 1437 123 15
366 12 489 -5 134 -20 318 -66 441 -112 116 -43 365 -166 457 -226 320 -208
568 -482 714 -787 28 -58 54 -112 58 -120 6 -11 37 -17 132 -22 210 -11 377
-55 551 -145 178 -92 351 -246 459 -408 274 -410 300 -992 65 -1450 -28 -55
-52 -103 -54 -107 -2 -5 3 -8 11 -8 11 0 15 -18 16 -87 1 -48 3 -89 5 -90 2
-2 10 7 19 21 10 15 17 49 18 90 l2 66 42 0 42 0 38 83 c53 114 99 254 126
383 31 145 34 467 6 609 -63 318 -189 559 -401 770 -123 123 -237 203 -385
273 -53 25 -97 46 -99 47 -4 3 131 617 433 1968 47 208 85 396 85 417 0 46
-16 60 -100 84 -55 15 -104 54 -129 104 -7 12 -14 50 -17 85 -5 55 -3 68 23
116 40 76 107 114 203 114 l69 0 10 49 c16 72 15 74 -31 87 -41 11 -306 71
-493 111 -49 10 -191 42 -315 70 -124 28 -286 64 -360 80 -226 49 -304 66
-605 134 -159 36 -351 78 -425 95 -1156 257 -1137 254 -1245 227z m655 -235
c250 -55 473 -105 495 -111 22 -5 175 -39 340 -75 165 -36 338 -74 385 -85 79
-18 191 -43 768 -170 125 -28 256 -57 291 -66 35 -8 95 -19 133 -24 38 -4 75
-14 83 -20 11 -10 15 -37 15 -116 0 -96 -2 -104 -19 -104 -11 0 -21 6 -24 13
-4 10 -7 10 -18 0 -31 -30 -77 4 -66 48 3 10 2 21 -1 23 -4 2 -81 20 -172 41
-91 20 -253 56 -360 80 -107 25 -310 69 -450 100 -140 31 -326 72 -414 91
-173 40 -197 38 -216 -11 -13 -35 2 -69 37 -83 15 -6 82 -23 148 -37 66 -14
138 -30 161 -35 71 -16 984 -219 1109 -246 66 -14 128 -28 138 -31 12 -3 17
-15 17 -41 0 -20 5 -54 11 -75 6 -22 9 -41 6 -43 -5 -5 -26 0 -432 90 -165 37
-410 92 -545 121 -135 29 -470 103 -745 165 -275 61 -673 149 -885 196 -212
47 -405 95 -430 105 -55 24 -116 82 -137 129 -21 49 -18 121 7 169 20 40 77
85 130 102 62 20 188 1 640 -100z m-707 -420 c24 -11 73 -28 110 -37 l67 -17
-6 -33 c-4 -23 -2 -34 6 -34 6 0 18 -6 26 -14 19 -20 20 -216 1 -216 -7 0 -18
5 -23 10 -7 7 -20 5 -40 -5 -33 -16 -25 10 -119 -415 -12 -58 -48 -217 -78
-355 -31 -137 -72 -326 -93 -420 -20 -93 -42 -192 -49 -220 l-12 -50 -99 -37
c-55 -21 -141 -58 -191 -82 -77 -37 -93 -42 -93 -28 0 9 18 96 40 192 21 96
87 393 146 660 58 267 141 646 185 842 43 196 79 360 79 363 0 4 23 -13 50
-38 28 -25 70 -55 93 -66z m552 -136 c419 -92 981 -216 1040 -230 57 -13 792
-176 1355 -300 367 -81 382 -85 375 -103 -3 -8 -28 -116 -55 -241 -129 -592
-450 -2024 -454 -2028 -2 -3 -35 2 -73 10 -37 9 -117 21 -178 27 -60 7 -111
15 -113 19 -1 3 -28 54 -60 113 -157 295 -387 543 -695 748 -296 198 -593 319
-937 382 -168 31 -492 31 -673 0 -70 -12 -131 -22 -136 -22 -9 0 -5 21 128
615 49 220 122 550 162 732 60 273 76 332 89 328 8 -2 110 -25 225 -50z"/>
<path d="M9481 10008 c-16 -31 -6 -84 11 -54 5 9 8 31 6 48 l-3 32 -14 -26z"/>
<path d="M6485 10087 c-4 -10 -5 -21 -1 -24 10 -10 18 4 13 24 -4 17 -4 17
-12 0z"/>
<path d="M6482 10013 c-15 -26 -16 -63 -2 -63 15 0 22 23 18 57 -3 28 -3 28
-16 6z"/>
<path d="M7167 9469 c-27 -16 -39 -55 -25 -84 14 -31 30 -36 358 -110 135 -30
272 -62 305 -70 71 -18 344 -79 465 -105 47 -10 225 -51 395 -90 362 -84 388
-87 418 -47 20 26 20 30 7 55 -22 38 -45 46 -225 86 -88 20 -299 67 -470 106
-170 39 -409 93 -530 121 -121 27 -258 58 -305 69 -47 11 -144 33 -216 50
-146 33 -151 34 -177 19z"/>
<path d="M7056 8968 c-21 -30 -20 -71 2 -90 9 -9 141 -44 292 -78 151 -34 340
-78 418 -96 79 -19 145 -34 147 -34 2 0 6 11 9 26 4 14 22 34 41 46 39 22 46
48 14 48 -11 0 -17 -4 -14 -10 4 -6 -5 -10 -19 -10 -19 0 -26 5 -26 20 0 23
39 12 -435 119 -199 44 -373 81 -387 81 -16 0 -33 -9 -42 -22z"/>
<path d="M8050 8712 l0 -69 43 -12 c41 -10 159 -37 262 -60 28 -6 168 -38 313
-71 145 -33 269 -60 276 -60 23 0 56 40 56 69 0 57 25 49 -710 216 -113 25
-213 48 -222 51 -16 5 -18 -3 -18 -64z"/>
<path d="M7976 8704 c-10 -27 -7 -44 9 -44 10 0 15 10 15 30 0 32 -14 40 -24
14z"/>
<path d="M6571 7991 c-25 -4 -50 -16 -58 -27 -20 -28 -12 -74 17 -95 22 -15
37 -16 125 -9 186 16 447 -17 640 -81 247 -82 485 -239 657 -435 33 -38 70
-73 83 -78 33 -13 70 0 83 29 18 40 -6 80 -117 193 -248 255 -552 415 -912
483 -123 23 -434 35 -518 20z"/>
<path d="M9361 6434 c-12 -15 -21 -32 -21 -39 0 -14 25 -50 89 -127 52 -62
114 -190 130 -266 15 -74 13 -185 -4 -262 -21 -87 -84 -210 -150 -292 -66 -82
-73 -105 -45 -141 47 -60 108 -20 211 141 184 286 180 591 -11 872 -91 134
-155 170 -199 114z"/>
<path d="M9777 4923 c-4 -3 -7 -54 -7 -112 0 -67 3 -102 10 -95 9 9 17 201 8
210 -3 2 -8 1 -11 -3z"/>
<path d="M0 450 l0 -450 6500 0 6500 0 0 450 0 450 -6500 0 -6500 0 0 -450z
m780 50 l0 -200 -35 0 -35 0 0 200 0 200 35 0 35 0 0 -200z m-115 105 c24 -23
25 -30 25 -149 0 -68 3 -131 6 -140 5 -13 -1 -16 -30 -16 -27 0 -36 4 -36 17
0 15 -2 14 -20 -2 -22 -20 -63 -23 -85 -5 -8 6 -17 28 -21 47 -9 50 15 94 70
129 38 23 46 34 44 54 -4 31 -32 33 -36 3 -3 -19 -10 -23 -38 -23 -31 0 -34 2
-34 30 0 46 39 80 90 80 30 0 47 -6 65 -25z m273 19 c41 -11 52 -51 52 -194
l0 -130 -29 0 c-16 0 -31 6 -34 13 -4 10 -7 10 -18 0 -18 -18 -74 -16 -93 3
-21 20 -21 93 -1 122 9 12 36 36 61 53 34 23 44 36 42 52 -4 29 -30 28 -43 0
-7 -17 -18 -23 -44 -23 -32 0 -33 1 -27 33 11 59 66 89 134 71z m234 -13 c12
-19 12 -19 36 0 30 23 55 24 76 3 13 -13 16 -42 16 -165 l0 -149 -30 0 -30 0
0 113 c0 123 -6 157 -25 157 -21 0 -25 -25 -25 -151 l0 -119 -35 0 -34 0 -3
133 c-3 109 -6 132 -18 132 -12 0 -15 -23 -18 -132 l-3 -133 -34 0 -35 0 0
160 0 160 35 0 c21 0 35 -5 35 -12 0 -8 6 -6 17 5 23 23 60 22 75 -2z m220
-121 c3 -121 4 -125 26 -128 22 -3 22 -3 22 127 0 80 4 131 10 132 59 7 55 20
58 -166 2 -94 0 -184 -3 -201 -7 -39 -38 -54 -110 -54 -54 0 -55 0 -55 30 0
27 3 30 34 30 49 0 66 9 66 35 0 23 -1 23 -30 9 -36 -18 -66 -6 -80 32 -6 14
-10 83 -10 154 l0 129 28 3 c15 2 30 1 34 -2 4 -3 9 -62 10 -130z m9813 90 c0
-27 -4 -50 -10 -50 -5 0 -10 23 -10 50 0 28 5 50 10 50 6 0 10 -22 10 -50z
m470 0 c0 -27 -4 -50 -10 -50 -5 0 -10 23 -10 50 0 28 5 50 10 50 6 0 10 -22
10 -50z m93 38 c7 -7 12 -24 12 -38 0 -34 -17 -50 -52 -50 -27 0 -28 2 -28 50
0 48 1 50 28 50 15 0 33 -5 40 -12z m160 -14 c2 -11 -4 -27 -13 -34 -21 -17
-19 -28 8 -33 16 -3 13 -5 -10 -6 -38 -1 -41 8 -13 34 27 25 27 59 0 52 -11
-3 -17 -1 -14 4 10 17 39 5 42 -17z m100 14 c7 -7 12 -24 12 -38 0 -34 -17
-50 -52 -50 -27 0 -28 2 -28 50 0 48 1 50 28 50 15 0 33 -5 40 -12z m65 2
c-13 -5 -23 -13 -23 -18 0 -5 10 -8 23 -8 18 1 22 -4 22 -29 0 -25 -4 -30 -25
-30 -21 0 -26 5 -28 33 -4 37 12 62 37 61 11 0 9 -3 -6 -9z m110 -47 c10 -24
12 -43 7 -43 -6 0 -10 7 -10 15 0 9 -9 15 -25 15 -16 0 -25 -6 -25 -15 0 -8
-4 -15 -10 -15 -6 0 -6 9 0 25 6 14 15 37 20 52 12 31 21 24 43 -34z m85 50
c-14 -3 -18 -15 -18 -49 0 -24 -4 -44 -10 -44 -5 0 -10 20 -10 44 0 34 -4 46
-17 49 -10 3 2 5 27 5 25 0 37 -2 28 -5z m90 -5 c7 -7 12 -24 12 -38 0 -34
-17 -50 -52 -50 -27 0 -28 2 -28 50 0 48 1 50 28 50 15 0 33 -5 40 -12z m52
-8 c0 -30 47 -28 53 3 2 12 4 -3 4 -33 0 -30 -2 -43 -4 -27 -3 21 -10 27 -29
27 -19 0 -24 -5 -24 -25 0 -14 -4 -25 -10 -25 -5 0 -10 23 -10 50 0 28 5 50
10 50 6 0 10 -9 10 -20z m-1093 -45 l1 -40 -6 35 c-4 22 -13 35 -22 35 -9 0
-17 -13 -21 -35 l-6 -35 -2 38 c-1 45 -27 52 -37 10 -10 -48 -12 -49 -13 -7
l-1 41 53 -1 52 -1 2 -40z m81 4 c3 -34 1 -36 -25 -35 -37 1 -39 37 -3 47 l25
6 -25 12 -25 11 25 -3 c21 -2 25 -8 28 -38z m84 30 c2 -6 1 -32 -2 -58 -4 -40
-8 -46 -30 -48 -25 -3 -25 -3 -2 7 12 5 22 14 22 19 0 5 -10 11 -22 13 -23 3
-35 35 -24 64 6 16 53 19 58 3z m86 -11 c3 -14 -3 -18 -23 -18 -33 0 -29 -22
6 -31 14 -4 17 -7 7 -8 -32 -2 -48 11 -48 38 0 15 3 31 7 35 13 13 48 1 51
-16z m232 12 c0 -5 -4 -10 -10 -10 -5 0 -10 5 -10 10 0 6 5 10 10 10 6 0 10
-4 10 -10z m0 -60 c0 -5 -4 -10 -10 -10 -5 0 -10 5 -10 10 0 6 5 10 10 10 6 0
10 -4 10 -10z m-60 -190 c0 -47 -3 -60 -15 -60 -12 0 -15 13 -15 60 0 47 3 60
15 60 12 0 15 -13 15 -60z m-580 10 c0 -11 5 -20 10 -20 6 0 10 9 10 21 0 29
32 21 41 -11 l6 -25 8 28 c7 28 25 38 25 13 0 -27 -22 -76 -35 -76 -7 0 -16
15 -20 33 l-8 32 -6 -30 c-9 -44 -33 -37 -47 13 -11 35 -11 42 2 42 8 0 14 -9
14 -20z m140 0 c0 -11 5 -20 10 -20 6 0 10 9 10 21 0 29 32 21 41 -11 l6 -25
8 28 c11 42 28 33 20 -10 -8 -46 -12 -53 -29 -53 -8 0 -17 15 -21 33 l-8 32
-6 -30 c-9 -44 -33 -37 -47 13 -11 35 -11 42 2 42 8 0 14 -9 14 -20z m140 0
c0 -11 5 -20 10 -20 6 0 10 9 10 21 0 29 32 21 41 -11 l6 -25 8 28 c7 28 25
38 25 13 0 -27 -22 -76 -35 -76 -7 0 -16 15 -20 33 l-7 32 -10 -33 c-12 -43
-29 -36 -45 16 -10 35 -9 42 3 42 8 0 14 -9 14 -20z m235 8 c2 -7 6 -27 8 -44
5 -30 4 -31 -32 -30 -31 1 -36 4 -36 26 0 17 7 26 25 31 24 7 24 7 3 8 -13 1
-23 6 -23 11 0 15 50 12 55 -2z m153 -5 c5 -10 9 -29 7 -43 -1 -20 -7 -24 -36
-25 -30 0 -34 3 -34 25 0 17 7 26 25 31 24 7 24 7 3 8 -31 1 -29 21 2 21 13 0
28 -8 33 -17z m162 -4 c12 -22 7 -62 -8 -67 -8 -2 -12 9 -12 32 0 25 -4 36
-15 36 -10 0 -15 -11 -15 -35 0 -44 -18 -46 -22 -3 -4 46 -28 49 -28 4 0 -25
-4 -36 -15 -36 -11 0 -15 12 -15 44 l0 43 60 0 c48 0 63 -4 70 -18z m55 -6 l8
-28 10 28 c13 33 42 38 31 5 -19 -61 -45 -108 -59 -108 -18 0 -20 17 -3 22 10
4 9 16 -4 56 -13 41 -13 52 -3 52 7 0 16 -12 20 -27z m175 18 c0 -5 -9 -11
-20 -14 -11 -3 -20 -13 -20 -22 0 -9 9 -19 20 -22 23 -6 27 -23 6 -23 -31 0
-46 13 -46 39 0 15 5 32 12 39 14 14 48 16 48 3z m90 -5 c28 -35 -11 -93 -47
-70 -36 22 -23 84 17 84 10 0 23 -7 30 -14z m162 -21 c9 -33 4 -55 -12 -55 -5
0 -10 16 -10 35 0 24 -5 35 -15 35 -10 0 -15 -11 -15 -35 0 -44 -18 -46 -22
-3 -4 46 -28 49 -28 4 0 -25 -4 -36 -15 -36 -11 0 -15 12 -15 44 l0 44 62 -2
c60 -1 62 -2 70 -31z m-891 -48 c-13 -13 -26 -3 -16 12 3 6 11 8 17 5 6 -4 6
-10 -1 -17z m550 0 c-13 -13 -26 -3 -16 12 3 6 11 8 17 5 6 -4 6 -10 -1 -17z"/>
<path d="M592 427 c-26 -27 -28 -55 -7 -63 24 -9 42 12 43 51 2 41 -6 44 -36
12z"/>
<path d="M893 438 c-30 -32 -31 -78 -3 -78 25 0 32 17 28 65 l-3 37 -22 -24z"/>
<path d="M11720 580 c0 -33 3 -41 16 -38 26 5 41 35 28 56 -6 9 -19 18 -28 20
-13 3 -16 -5 -16 -38z"/>
<path d="M11980 580 c0 -33 3 -41 16 -38 26 5 41 35 28 56 -6 9 -19 18 -28 20
-13 3 -16 -5 -16 -38z"/>
<path d="M12073 574 c-8 -21 13 -42 28 -27 13 13 5 43 -11 43 -6 0 -13 -7 -17
-16z"/>
<path d="M12166 595 c-9 -23 -8 -25 9 -25 17 0 19 9 6 28 -7 11 -10 10 -15 -3z"/>
<path d="M12330 580 c0 -33 3 -41 16 -38 9 2 22 11 28 21 13 20 -2 50 -28 55
-13 3 -16 -5 -16 -38z"/>
<path d="M11370 555 c0 -8 7 -15 15 -15 8 0 15 7 15 15 0 8 -7 15 -15 15 -8 0
-15 -7 -15 -15z"/>
<path d="M11454 586 c-8 -22 3 -49 19 -43 6 2 12 14 12 27 0 27 -22 39 -31 16z"/>
<path d="M11545 590 c-3 -5 3 -10 15 -10 12 0 18 5 15 10 -3 6 -10 10 -15 10
-5 0 -12 -4 -15 -10z"/>
<path d="M11657 333 c-12 -11 -8 -23 8 -23 8 0 15 7 15 15 0 16 -12 20 -23 8z"/>
<path d="M11807 333 c-12 -11 -8 -23 8 -23 8 0 15 7 15 15 0 16 -12 20 -23 8z"/>
<path d="M12283 344 c-8 -21 13 -42 28 -27 13 13 5 43 -11 43 -6 0 -13 -7 -17
-16z"/>
</g>
</svg>
